HIERARCHY
ROOT Hips
{
  OFFSET 5.80788e-005 67.184 3.4734
  CHANNELS 6 Xposition Yposition Zposition Zrotation Xrotation Yrotation
  JOINT Chest
  {
    OFFSET 0 8.7983 -4.7612
    CHANNELS 6 Xposition Yposition Zposition Zrotation Xrotation Yrotation
    JOINT Chest2
    {
      OFFSET 0 8.0291 0.4195
      CHANNELS 6 Xposition Yposition Zposition Zrotation Xrotation Yrotation
      JOINT Chest3
      {
        OFFSET 0 9.9351 -2.2114
        CHANNELS 6 Xposition Yposition Zposition Zrotation Xrotation Yrotation
        JOINT Neck
        {
          OFFSET 0 22.3885 -0.4656
          CHANNELS 6 Xposition Yposition Zposition Zrotation Xrotation Yrotation
          JOINT Head
          {
            OFFSET -0.0001 12.643 3.4389
            CHANNELS 6 Xposition Yposition Zposition Zrotation Xrotation Yrotation
            End Site
            {
              OFFSET 0.0001 17.6655 0.5274
            }
          }
        }
        JOINT LeftCollar
        {
          OFFSET 2.2603 21.606 7.4023
          CHANNELS 6 Xposition Yposition Zposition Zrotation Xrotation Yrotation
          JOINT LeftShoulder
          {
            OFFSET 13.5163 -1.1332 -5.0146
            CHANNELS 6 Xposition Yposition Zposition Zrotation Xrotation Yrotation
            JOINT LeftElbow
            {
              OFFSET -0.0995 -28.05 -0.2431
              CHANNELS 6 Xposition Yposition Zposition Zrotation Xrotation Yrotation
              JOINT LeftWrist
              {
                OFFSET 0.0679 -23.3996 -0.1402
                CHANNELS 6 Xposition Yposition Zposition Zrotation Xrotation Yrotation
                JOINT LeftFinger1
                {
                  OFFSET 0.7932 -9.069 2.5189
                  CHANNELS 6 Xposition Yposition Zposition Zrotation Xrotation Yrotation
                  JOINT LeftFinger11
                  {
                    OFFSET -0.8272 -3.3923 0.5977
                    CHANNELS 6 Xposition Yposition Zposition Zrotation Xrotation Yrotation
                    JOINT LeftFinger12
                    {
                      OFFSET -0.5649 -2.3158 0.4082
                      CHANNELS 6 Xposition Yposition Zposition Zrotation Xrotation Yrotation
                      End Site
                      {
                        OFFSET -0.4919 -1.6479 0.2673
                      }
                    }
                  }
                }
                JOINT LeftFinger2
                {
                  OFFSET 0.9159 -9.2044 0.2193
                  CHANNELS 6 Xposition Yposition Zposition Zrotation Xrotation Yrotation
                  JOINT LeftFinger21
                  {
                    OFFSET 0.0117 -4.1944 -0.0248
                    CHANNELS 6 Xposition Yposition Zposition Zrotation Xrotation Yrotation
                    JOINT LeftFinger22
                    {
                      OFFSET 0.0071 -2.3249 -0.0142
                      CHANNELS 6 Xposition Yposition Zposition Zrotation Xrotation Yrotation
                      End Site
                      {
                        OFFSET -0.1475 -2.0882 0.0028
                      }
                    }
                  }
                }
                JOINT LeftFinger3
                {
                  OFFSET 0.6113 -8.7231 -2.0637
                  CHANNELS 6 Xposition Yposition Zposition Zrotation Xrotation Yrotation
                  JOINT LeftFinger31
                  {
                    OFFSET -0.1927 -3.8059 -0.2383
                    CHANNELS 6 Xposition Yposition Zposition Zrotation Xrotation Yrotation
                    JOINT LeftFinger32
                    {
                      OFFSET -0.1091 -2.1688 -0.1362
                      CHANNELS 6 Xposition Yposition Zposition Zrotation Xrotation Yrotation
                      End Site
                      {
                        OFFSET -0.2358 -1.9176 -0.0906
                      }
                    }
                  }
                }
                JOINT LeftFinger4
                {
                  OFFSET -0.6151 -8.0947 -3.5641
                  CHANNELS 6 Xposition Yposition Zposition Zrotation Xrotation Yrotation
                  JOINT LeftFinger41
                  {
                    OFFSET -0.4882 -2.341 -0.6462
                    CHANNELS 6 Xposition Yposition Zposition Zrotation Xrotation Yrotation
                    JOINT LeftFinger42
                    {
                      OFFSET -0.3575 -1.7167 -0.4742
                      CHANNELS 6 Xposition Yposition Zposition Zrotation Xrotation Yrotation
                      End Site
                      {
                        OFFSET -0.4187 -1.5237 -0.3496
                      }
                    }
                  }
                }
                JOINT LeftFinger0
                {
                  OFFSET -1.42 -1.8761 1.4223
                  CHANNELS 6 Xposition Yposition Zposition Zrotation Xrotation Yrotation
                  JOINT LeftFinger01
                  {
                    OFFSET -1.1471 -3.4929 2.6334
                    CHANNELS 6 Xposition Yposition Zposition Zrotation Xrotation Yrotation
                    JOINT LeftFinger02
                    {
                      OFFSET -0.823 -2.3 1.6571
                      CHANNELS 6 Xposition Yposition Zposition Zrotation Xrotation Yrotation
                      End Site
                      {
                        OFFSET -0.5822 -1.6914 1.1582
                      }
                    }
                  }
                }
              }
            }
          }
        }
        JOINT RightCollar
        {
          OFFSET -2.2603 21.606 7.4023
          CHANNELS 6 Xposition Yposition Zposition Zrotation Xrotation Yrotation
          JOINT RightShoulder
          {
            OFFSET -13.5187 -1.1334 -5.0155
            CHANNELS 6 Xposition Yposition Zposition Zrotation Xrotation Yrotation
            JOINT RightElbow
            {
              OFFSET 0.0994 -28.0499 -0.2431
              CHANNELS 6 Xposition Yposition Zposition Zrotation Xrotation Yrotation
              JOINT RightWrist
              {
                OFFSET -0.0679 -23.3996 -0.1402
                CHANNELS 6 Xposition Yposition Zposition Zrotation Xrotation Yrotation
                JOINT RightFinger1
                {
                  OFFSET -0.7932 -9.0691 2.5189
                  CHANNELS 6 Xposition Yposition Zposition Zrotation Xrotation Yrotation
                  JOINT RightFinger11
                  {
                    OFFSET 0.8272 -3.3923 0.5977
                    CHANNELS 6 Xposition Yposition Zposition Zrotation Xrotation Yrotation
                    JOINT RightFinger12
                    {
                      OFFSET 0.565 -2.3158 0.4082
                      CHANNELS 6 Xposition Yposition Zposition Zrotation Xrotation Yrotation
                      End Site
                      {
                        OFFSET 0.4919 -1.6479 0.2673
                      }
                    }
                  }
                }
                JOINT RightFinger2
                {
                  OFFSET -0.916 -9.2044 0.2193
                  CHANNELS 6 Xposition Yposition Zposition Zrotation Xrotation Yrotation
                  JOINT RightFinger21
                  {
                    OFFSET -0.0117 -4.1944 -0.0248
                    CHANNELS 6 Xposition Yposition Zposition Zrotation Xrotation Yrotation
                    JOINT RightFinger22
                    {
                      OFFSET -0.0071 -2.3249 -0.0142
                      CHANNELS 6 Xposition Yposition Zposition Zrotation Xrotation Yrotation
                      End Site
                      {
                        OFFSET 0.1475 -2.0882 0.0028
                      }
                    }
                  }
                }
                JOINT RightFinger3
                {
                  OFFSET -0.6113 -8.7231 -2.0637
                  CHANNELS 6 Xposition Yposition Zposition Zrotation Xrotation Yrotation
                  JOINT RightFinger31
                  {
                    OFFSET 0.1927 -3.8059 -0.2383
                    CHANNELS 6 Xposition Yposition Zposition Zrotation Xrotation Yrotation
                    JOINT RightFinger32
                    {
                      OFFSET 0.1091 -2.1688 -0.1362
                      CHANNELS 6 Xposition Yposition Zposition Zrotation Xrotation Yrotation
                      End Site
                      {
                        OFFSET 0.2358 -1.9176 -0.0906
                      }
                    }
                  }
                }
                JOINT RightFinger4
                {
                  OFFSET 0.6151 -8.0947 -3.564
                  CHANNELS 6 Xposition Yposition Zposition Zrotation Xrotation Yrotation
                  JOINT RightFinger41
                  {
                    OFFSET 0.4882 -2.341 -0.6462
                    CHANNELS 6 Xposition Yposition Zposition Zrotation Xrotation Yrotation
                    JOINT RightFinger42
                    {
                      OFFSET 0.3574 -1.7166 -0.4742
                      CHANNELS 6 Xposition Yposition Zposition Zrotation Xrotation Yrotation
                      End Site
                      {
                        OFFSET 0.4187 -1.5237 -0.3496
                      }
                    }
                  }
                }
                JOINT RightFinger0
                {
                  OFFSET 1.4199 -1.8761 1.4221
                  CHANNELS 6 Xposition Yposition Zposition Zrotation Xrotation Yrotation
                  JOINT RightFinger01
                  {
                    OFFSET 1.1472 -3.4929 2.6336
                    CHANNELS 6 Xposition Yposition Zposition Zrotation Xrotation Yrotation
                    JOINT RightFinger02
                    {
                      OFFSET 0.8229 -2.3 1.6571
                      CHANNELS 6 Xposition Yposition Zposition Zrotation Xrotation Yrotation
                      End Site
                      {
                        OFFSET 0.5822 -1.6914 1.1582
                      }
                    }
                  }
                }
              }
            }
          }
        }
      }
    }
  }
  JOINT RightHip
  {
    OFFSET -9.412 3.9771 -0.7758
    CHANNELS 6 Xposition Yposition Zposition Zrotation Xrotation Yrotation
    JOINT RightKnee
    {
      OFFSET -0.7531 -40.938 0
      CHANNELS 6 Xposition Yposition Zposition Zrotation Xrotation Yrotation
      JOINT RightAnkle
      {
        OFFSET 0 -40.1986 0
        CHANNELS 6 Xposition Yposition Zposition Zrotation Xrotation Yrotation
        JOINT RightToe
        {
          OFFSET 0 -4.4182 9.239
          CHANNELS 6 Xposition Yposition Zposition Zrotation Xrotation Yrotation
          End Site
          {
            OFFSET 0 0 6.1981
          }
        }
      }
    }
  }
  JOINT LeftHip
  {
    OFFSET 9.4119 3.9773 -0.7758
    CHANNELS 6 Xposition Yposition Zposition Zrotation Xrotation Yrotation
    JOINT LeftKnee
    {
      OFFSET 0.7532 -40.9383 0
      CHANNELS 6 Xposition Yposition Zposition Zrotation Xrotation Yrotation
      JOINT LeftAnkle
      {
        OFFSET 0 -40.1986 0
        CHANNELS 6 Xposition Yposition Zposition Zrotation Xrotation Yrotation
        JOINT LeftToe
        {
          OFFSET 0 -4.4182 9.239
          CHANNELS 6 Xposition Yposition Zposition Zrotation Xrotation Yrotation
          End Site
          {
            OFFSET 0 0 6.1981
          }
        }
      }
    }
  }
}
MOTION
Frames:	4
Frame Time:	0.0333333
5.80788e-005 67.184 3.4734 0 0 -0 0 8.7983 -4.7612 0 0 -0 0 8.0291 0.4195 0 0 -0 0 9.9351 -2.2114 0 0 -0 0 22.3885 -0.4656 0 0 -0 -0.0001 12.643 3.4389 0 0 -0 2.2603 21.606 7.4023 0 0 -12.5014 13.5163 -1.1332 -5.0146 88.1196 14.2451 10.6914 -0.0995 -28.05 -0.2431 -0.00160068 -0.00239207 0.000740045 0.0679 -23.3996 -0.1402 -8.4365e-005 7.00714e-005 -9.52055e-007 0.7932 -9.069 2.5189 9.93923e-017 -1.98785e-016 -1.59028e-015 -0.8272 -3.3923 0.5977 9.93923e-017 -5.96354e-016 -1.59028e-015 -0.5649 -2.3158 0.4082 -9.93923e-017 -5.96354e-016 -1.59028e-015 0.9159 -9.2044 0.2193 9.93923e-017 -1.98785e-016 -1.59028e-015 0.0117 -4.1944 -0.0248 -0.0128176 0.00232552 8.52707e-005 0.0071 -2.3249 -0.0142 9.93923e-017 5.96354e-016 -0 0.6113 -8.7231 -2.0637 9.93923e-017 -1.98785e-016 -1.59028e-015 -0.1927 -3.8059 -0.2383 -0.0160551 0.00299681 0.000857156 -0.1091 -2.1688 -0.1362 -2.48481e-016 0 3.18055e-015 -0.6151 -8.0947 -3.5641 9.93923e-017 -1.98785e-016 -1.59028e-015 -0.4882 -2.341 -0.6462 -0.0125865 0.0031206 0.00282719 -0.3575 -1.7167 -0.4742 0 1.98785e-016 -0 -1.42 -1.8761 1.4223 9.93923e-017 -1.98785e-016 -1.59028e-015 -1.1471 -3.4929 2.6334 9.93923e-017 -5.96354e-016 -1.59028e-015 -0.823 -2.3 1.6571 -9.93923e-017 -5.96354e-016 -1.59028e-015 -2.2603 21.606 7.4023 -0.865644 0.16582 7.03859 -13.5187 -1.1334 -5.0155 -88.0329 10.2057 -10.5567 0.0994 -28.0499 -0.2431 0.0015593 -0.00248883 -0.000788628 -0.0679 -23.3996 -0.1402 7.87605e-005 4.10553e-005 1.24965e-005 -0.7932 -9.0691 2.5189 -3.97569e-016 -7.95139e-016 3.18055e-015 0.8272 -3.3923 0.5977 -1.98785e-016 -3.97569e-016 3.18055e-015 0.565 -2.3158 0.4082 -1.98785e-016 0 3.18055e-015 -0.916 -9.2044 0.2193 -3.97569e-016 -7.95139e-016 3.18055e-015 -0.0117 -4.1944 -0.0248 0.0129473 0.00231697 -8.70038e-005 -0.0071 -2.3249 -0.0142 9.93923e-017 -7.95139e-016 1.59028e-015 -0.6113 -8.7231 -2.0637 -3.97569e-016 -7.95139e-016 3.18055e-015 0.1927 -3.8059 -0.2383 0.0163314 0.00303369 -0.000872333 0.1091 -2.1688 -0.1362 3.97569e-016 7.95139e-016 -3.18055e-015 0.6151 -8.0947 -3.564 -3.97569e-016 -7.95139e-016 3.18055e-015 0.4882 -2.341 -0.6462 0.0145763 0.00367772 -0.00326275 0.3574 -1.7166 -0.4742 9.93923e-017 -3.97569e-016 -0 1.4199 -1.8761 1.4221 -3.97569e-016 -7.95139e-016 3.18055e-015 1.1472 -3.4929 2.6336 -1.98785e-016 -3.97569e-016 3.18055e-015 0.8229 -2.3 1.6571 -1.98785e-016 0 3.18055e-015 -9.412 3.9771 -0.7758 3.42485 1.36937 -0.0640303 -0.7531 -40.938 0 0.000136572 0.69354 0.00145564 1.77636e-015 -40.1986 -1.11022e-016 -3.42573 -2.06297 -0.0607933 8.88178e-016 -4.4182 9.239 -3.19502e-024 0 -1.48106e-024 9.4119 3.9773 -0.7758 -3.42498 1.36123 0.0639712 0.7532 -40.9383 2.22045e-016 -6.769e-005 0.712612 -0.0012277 8.88179e-016 -40.1986 0 3.42582 -2.07388 0.0612819 -8.88178e-016 -4.4182 9.239 2.55305e-023 0 -2.31416e-026 
0.740429 33.2066 3.62936 -1.31138e-008 -11.0508 -1.85267e-008 0 8.7983 -4.7612 -0.692898 13.4976 0.173827 1.66534e-016 8.0291 0.4195 -1.49456 26.9919 0.544999 2.22045e-016 9.9351 -2.2114 -1.49456 26.9919 0.544998 6.66134e-016 22.3885 -0.4656 0.0058856 -0.250611 0.00707439 -0.0001 12.643 3.4389 -1.1723e-006 -0.254412 -6.35406e-007 2.2603 21.606 7.4023 -8.03601 -14.0043 -23.2343 13.5163 -1.1332 -5.0146 82.4364 -21.5299 -14.2355 -0.0995 -28.05 -0.2431 32.2376 -29.5003 18.1384 0.0679 -23.3996 -0.1402 26.8631 -12.8899 -3.05794 0.7932 -9.069 2.5189 -1.19271e-015 0 -3.60297e-016 -0.8272 -3.3923 0.5977 -1.19271e-015 0 4.53478e-016 -0.5649 -2.3158 0.4082 -7.95139e-016 -1.98785e-016 4.69008e-016 0.9159 -9.2044 0.2193 -1.19271e-015 0 -3.60297e-016 0.0117 -4.1944 -0.0248 -0.0127933 0.00231415 8.17074e-005 0.0071 -2.3249 -0.0142 -3.98218e-006 -1.00287e-005 -1.14821e-005 0.6113 -8.7231 -2.0637 -1.19271e-015 0 -3.60297e-016 -0.1927 -3.8059 -0.2383 -0.0160951 0.00299551 0.000849835 -0.1091 -2.1688 -0.1362 2.38153e-033 -9.93923e-017 1.37286e-015 -0.6151 -8.0947 -3.5641 -1.19271e-015 0 -3.60297e-016 -0.4882 -2.341 -0.6462 -0.0125474 0.00312098 0.00280855 -0.3575 -1.7167 -0.4742 1.18666e-007 -1.31321e-008 3.32132e-007 -1.42 -1.8761 1.4223 -1.19271e-015 0 -3.60297e-016 -1.1471 -3.4929 2.6334 -1.19271e-015 0 4.53478e-016 -0.823 -2.3 1.6571 -7.95139e-016 -1.98785e-016 4.69008e-016 -2.2603 21.606 7.4023 7.11033 -14.0014 17.5261 -13.5187 -1.1334 -5.0155 -82.8426 -25.9914 14.2187 0.0994 -28.0499 -0.2431 -32.3311 -28.9869 -19.256 -0.0679 -23.3996 -0.1402 -27.0981 -12.7255 2.23304 -0.7932 -9.0691 2.5189 5.96354e-016 0 1.57164e-015 0.8272 -3.3923 0.5977 3.97569e-016 7.95139e-016 -3.10601e-017 0.565 -2.3158 0.4082 2.98177e-016 7.95139e-016 -1.62444e-015 -0.916 -9.2044 0.2193 5.96354e-016 0 1.57164e-015 -0.0117 -4.1944 -0.0248 0.0129636 0.00231711 -8.23027e-005 -0.0071 -2.3249 -0.0142 2.48481e-016 0 2.10898e-015 -0.6113 -8.7231 -2.0637 5.96354e-016 0 1.57164e-015 0.1927 -3.8059 -0.2383 0.0163109 0.00302546 -0.000860338 0.1091 -2.1688 -0.1362 -1.98785e-016 -7.95139e-016 -2.66185e-015 0.6151 -8.0947 -3.564 5.96354e-016 0 1.57164e-015 0.4882 -2.341 -0.6462 0.0145924 0.00368485 -0.00326673 0.3574 -1.7166 -0.4742 -2.48481e-016 -7.95139e-016 -1.01567e-015 1.4199 -1.8761 1.4221 5.96354e-016 0 1.57164e-015 1.1472 -3.4929 2.6336 3.97569e-016 7.95139e-016 -3.10601e-017 0.8229 -2.3 1.6571 2.98177e-016 7.95139e-016 -1.62444e-015 -9.412 3.9771 -0.7758 -41.0966 -50.8284 -57.4111 -0.7531 -40.938 0 -14.2939 79.6791 15.1635 0 -40.1986 7.10543e-015 -1.02703 -15.0737 0.292732 -3.55271e-015 -4.4182 9.239 3.18055e-015 -1.59028e-015 3.18055e-015 9.4119 3.9773 -0.7758 41.0366 -50.8613 57.2658 0.7532 -40.9383 0 14.1537 79.6817 -15.007 0 -40.1986 0 0.975267 -15.067 -0.260276 -3.55271e-015 -4.4182 9.239 -7.95139e-016 -3.18055e-015 3.18055e-015 
1.07335 17.8846 3.55364 2.20084e-007 -16.3284 2.93346e-008 0 8.7983 -4.7612 -1.03261 19.5723 0.229628 2.22045e-016 8.0291 0.4195 -2.38619 39.136 0.954497 3.88578e-016 9.9351 -2.2114 -2.38616 39.1357 0.954479 0 22.3885 -0.4656 -0.0204332 -0.403497 -0.0247785 -0.0001 12.643 3.4389 6.05504e-007 -0.449526 1.84662e-006 2.2603 21.606 7.4023 -13.4904 -19.7709 -28.8216 13.5163 -1.1332 -5.0146 80.8596 -37.707 -24.549 -0.0995 -28.05 -0.2431 47.51 -41.8833 26.7077 0.0679 -23.3996 -0.1402 39.2806 -18.4243 -3.64756 0.7932 -9.069 2.5189 2.5842e-015 6.36111e-015 -2.18663e-015 -0.8272 -3.3923 0.5977 -1.78906e-015 6.36111e-015 -4.37326e-015 -0.5649 -2.3158 0.4082 -3.97569e-016 6.36111e-015 -5.1684e-015 0.9159 -9.2044 0.2193 2.5842e-015 6.36111e-015 -2.18663e-015 0.0117 -4.1944 -0.0248 -0.0128227 0.00232187 8.07647e-005 0.0071 -2.3249 -0.0142 5.90367e-006 -4.89982e-007 6.39097e-006 0.6113 -8.7231 -2.0637 2.5842e-015 6.36111e-015 -2.18663e-015 -0.1927 -3.8059 -0.2383 -0.0160438 0.00299025 0.00085297 -0.1091 -2.1688 -0.1362 2.5842e-015 0 5.36719e-015 -0.6151 -8.0947 -3.5641 2.5842e-015 6.36111e-015 -2.18663e-015 -0.4882 -2.341 -0.6462 -0.0125855 0.00311859 0.00282211 -0.3575 -1.7167 -0.4742 2.18663e-015 9.54166e-015 -3.97569e-016 -1.42 -1.8761 1.4223 2.5842e-015 6.36111e-015 -2.18663e-015 -1.1471 -3.4929 2.6334 -1.78906e-015 6.36111e-015 -4.37326e-015 -0.823 -2.3 1.6571 -3.97569e-016 6.36111e-015 -5.1684e-015 -2.2603 21.606 7.4023 12.5274 -19.8621 23.0739 -13.5187 -1.1334 -5.0155 -81.4738 -42.3752 24.1587 0.0994 -28.0499 -0.2431 -47.7977 -41.0216 -28.2317 -0.0679 -23.3996 -0.1402 -39.7157 -18.1398 2.42833 -0.7932 -9.0691 2.5189 1.41785e-006 -8.57099e-007 -9.49627e-007 0.8272 -3.3923 0.5977 -8.13186e-006 1.26007e-006 -5.65138e-006 0.565 -2.3158 0.4082 4.90906e-006 2.97182e-006 -1.44762e-006 -0.916 -9.2044 0.2193 1.41785e-006 -8.57099e-007 -9.49627e-007 -0.0117 -4.1944 -0.0248 0.0129476 0.00230992 -8.82974e-005 -0.0071 -2.3249 -0.0142 3.97569e-016 1.27222e-014 7.95139e-016 -0.6113 -8.7231 -2.0637 1.41785e-006 -8.57099e-007 -9.49627e-007 0.1927 -3.8059 -0.2383 0.016334 0.003038 -0.000872808 0.1091 -2.1688 -0.1362 -9.93923e-016 -3.18055e-015 2.5842e-015 0.6151 -8.0947 -3.564 1.41785e-006 -8.57099e-007 -9.49627e-007 0.4882 -2.341 -0.6462 0.0145865 0.00368541 -0.00326401 0.3574 -1.7166 -0.4742 -1.98785e-016 -1.59028e-014 1.19271e-015 1.4199 -1.8761 1.4221 1.41785e-006 -8.57099e-007 -9.49627e-007 1.1472 -3.4929 2.6336 -8.13186e-006 1.26007e-006 -5.65138e-006 0.8229 -2.3 1.6571 4.90906e-006 2.97182e-006 -1.44762e-006 -9.412 3.9771 -0.7758 -86.5664 -43.9173 -97.3531 -0.7531 -40.938 -3.55271e-015 -167.963 64.7698 167.079 0 -40.1986 0 -0.186536 -20.5335 -0.0420775 -3.55271e-015 -4.4182 9.239 -6.62838e-006 6.78346e-007 -4.34721e-006 9.4119 3.9773 -0.7758 86.5892 -44.0452 97.2954 0.7532 -40.9383 3.55271e-015 168.059 64.7845 -167.166 -3.55271e-015 -40.1986 0 0.11473 -20.5246 0.0902182 0 -4.4182 9.239 1.59028e-015 4.75322e-008 -3.18055e-015 
0.999372 21.0468 3.65536 9.22143e-008 -15.8331 7.58284e-008 0 8.7983 -4.7612 -0.956775 18.2223 0.218426 -1.11022e-016 8.0291 0.4195 -2.17135 36.4376 0.848172 -2.22045e-016 9.9351 -2.2114 -2.17132 36.4374 0.848157 2.22045e-016 22.3885 -0.4656 -0.0791619 -0.457084 -0.0955858 -0.0001 12.643 3.4389 -1.38505e-006 -0.585356 -7.32206e-007 2.2603 21.606 7.4023 -12.253 -18.2208 -28.0702 13.5163 -1.1332 -5.0146 81.2758 -33.8762 -22.2223 -0.0995 -28.05 -0.2431 43.1299 -38.6367 24.187 0.0679 -23.3996 -0.1402 36.2961 -17.5065 -3.2819 0.7932 -9.069 2.5189 1.54844e-006 -5.35997e-007 -7.18643e-007 -0.8272 -3.3923 0.5977 9.93923e-016 -3.18055e-015 2.5842e-015 -0.5649 -2.3158 0.4082 -1.16198e-006 -6.68685e-006 -2.27505e-006 0.9159 -9.2044 0.2193 1.54844e-006 -5.35997e-007 -7.18643e-007 0.0117 -4.1944 -0.0248 -0.0128234 0.00232955 8.50773e-005 0.0071 -2.3249 -0.0142 -2.83368e-006 -1.09212e-005 -6.01927e-006 0.6113 -8.7231 -2.0637 1.54844e-006 -5.35997e-007 -7.18643e-007 -0.1927 -3.8059 -0.2383 -0.0160545 0.00297899 0.000848805 -0.1091 -2.1688 -0.1362 3.97569e-016 -3.18055e-015 5.96354e-016 -0.6151 -8.0947 -3.5641 1.54844e-006 -5.35997e-007 -7.18643e-007 -0.4882 -2.341 -0.6462 -0.01258 0.00310494 0.00281354 -0.3575 -1.7167 -0.4742 7.77046e-007 1.15088e-007 5.26838e-006 -1.42 -1.8761 1.4223 1.54844e-006 -5.35997e-007 -7.18643e-007 -1.1471 -3.4929 2.6334 9.93923e-016 -3.18055e-015 2.5842e-015 -0.823 -2.3 1.6571 -1.16198e-006 -6.68685e-006 -2.27505e-006 -2.2603 21.606 7.4023 11.2919 -18.3164 22.4875 -13.5187 -1.1334 -5.0155 -81.8558 -38.4559 21.9135 0.0994 -28.0499 -0.2431 -43.1946 -37.7914 -25.4993 -0.0679 -23.3996 -0.1402 -36.7332 -17.3741 2.07438 -0.7932 -9.0691 2.5189 -5.96354e-016 -6.36111e-015 -2.28602e-015 0.8272 -3.3923 0.5977 -1.98785e-016 -3.18055e-015 -9.93923e-016 0.565 -2.3158 0.4082 3.97569e-016 0 -3.97569e-016 -0.916 -9.2044 0.2193 -5.96354e-016 -6.36111e-015 -2.28602e-015 -0.0117 -4.1944 -0.0248 0.0129376 0.00232376 -9.0171e-005 -0.0071 -2.3249 -0.0142 1.98785e-016 0 -0 -0.6113 -8.7231 -2.0637 -5.96354e-016 -6.36111e-015 -2.28602e-015 0.1927 -3.8059 -0.2383 0.0163402 0.00303927 -0.000872855 0.1091 -2.1688 -0.1362 -6.95746e-015 -3.18055e-015 -1.09332e-014 0.6151 -8.0947 -3.564 -5.96354e-016 -6.36111e-015 -2.28602e-015 0.4882 -2.341 -0.6462 0.0145758 0.00368377 -0.00326042 0.3574 -1.7166 -0.4742 -5.51738e-032 6.36111e-015 4.96962e-016 1.4199 -1.8761 1.4221 -5.96354e-016 -6.36111e-015 -2.28602e-015 1.1472 -3.4929 2.6336 -1.98785e-016 -3.18055e-015 -9.93923e-016 0.8229 -2.3 1.6571 3.97569e-016 0 -3.97569e-016 -9.412 3.9771 -0.7758 -77.8162 -46.9176 -90.183 -0.7531 -40.938 0 -164.799 72.0536 164.473 3.55271e-015 -40.1986 0 -0.597116 -19.261 0.226703 0 -4.4182 9.239 3.27554e-006 -6.69142e-007 2.28888e-006 9.4119 3.9773 -0.7758 77.8118 -47.0286 90.094 0.7532 -40.9383 0 164.919 72.0688 -164.584 3.55271e-015 -40.1986 -7.10543e-015 0.528104 -19.2515 -0.182689 0 -4.4182 9.239 -1.59028e-015 1.59028e-015 -6.36111e-015 
